<?xml version="1.0" encoding="utf-8"?>
<!-- Generator: Adobe Illustrator 23.0.0, SVG Export Plug-In . SVG Version: 6.00 Build 0)  -->
<svg version="1.1" id="Layer_1" xmlns="http://www.w3.org/2000/svg" xmlns:xlink="http://www.w3.org/1999/xlink" x="0px" y="0px"
	 viewBox="0 0 3710 3710" style="enable-background:new 0 0 3710 3710;" xml:space="preserve">
<style type="text/css">
	.st0{fill:url(#SVGID_1_);}
	.st1{fill:#BDD0FB;}
	.st2{opacity:0.43;fill:#FFFFFF;enable-background:new    ;}
	.st3{fill:#91B3FA;}
	.st4{opacity:0.45;fill:#FFFFFF;enable-background:new    ;}
	.st5{fill:#7D97F4;}
	.st6{fill:url(#SVGID_2_);}
	.st7{fill:url(#SVGID_3_);}
	.st8{fill:url(#SVGID_4_);}
	.st9{fill:url(#SVGID_5_);}
	.st10{opacity:0.89;}
	.st11{fill:url(#SVGID_6_);}
	.st12{fill:url(#SVGID_7_);}
	.st13{fill:url(#SVGID_8_);}
	.st14{fill:url(#SVGID_9_);}
	.st15{fill:url(#SVGID_10_);}
	.st16{fill:url(#SVGID_11_);}
	.st17{opacity:0.46;fill:#FFFFFF;enable-background:new    ;}
	.st18{opacity:0.9;fill:#7D97F4;enable-background:new    ;}
	.st19{fill:#FFFFFF;}
	.st20{fill:url(#SVGID_12_);}
	.st21{fill:url(#SVGID_13_);}
	.st22{fill:url(#SVGID_14_);}
	.st23{fill:url(#SVGID_15_);}
	.st24{fill:url(#SVGID_16_);}
	.st25{fill:url(#SVGID_17_);}
	.st26{fill:url(#SVGID_18_);}
	.st27{fill:url(#SVGID_19_);}
	.st28{fill:url(#SVGID_20_);}
	.st29{fill:url(#SVGID_21_);}
	.st30{fill:url(#SVGID_22_);}
	.st31{fill:url(#SVGID_23_);}
	.st32{fill:url(#SVGID_24_);}
	.st33{fill:url(#SVGID_25_);}
	.st34{fill:url(#SVGID_26_);}
	.st35{fill:url(#SVGID_27_);}
	.st36{fill:url(#SVGID_28_);}
	.st37{fill:url(#SVGID_29_);}
	.st38{fill:url(#SVGID_30_);}
	.st39{fill:url(#SVGID_31_);}
	.st40{fill:url(#SVGID_32_);}
	.st41{fill:url(#SVGID_33_);}
	.st42{fill:url(#SVGID_34_);}
	.st43{fill:url(#SVGID_35_);}
	.st44{fill:url(#SVGID_36_);}
	.st45{fill:url(#SVGID_37_);}
	.st46{fill:url(#SVGID_38_);}
	.st47{fill:url(#SVGID_39_);}
	.st48{fill:url(#SVGID_40_);}
	.st49{fill:url(#SVGID_41_);}
	.st50{fill:url(#SVGID_42_);}
	.st51{fill:url(#SVGID_43_);}
	.st52{fill:url(#SVGID_44_);}
	.st53{fill:url(#SVGID_45_);}
	.st54{fill:url(#SVGID_46_);}
	.st55{fill:url(#SVGID_47_);}
	.st56{fill:url(#SVGID_48_);}
	.st57{fill:url(#SVGID_49_);}
	.st58{fill:url(#SVGID_50_);}
	.st59{fill:url(#SVGID_51_);}
	.st60{fill:url(#SVGID_52_);}
	.st61{fill:url(#SVGID_53_);}
	.st62{fill:url(#SVGID_54_);}
	.st63{opacity:0.7;fill:#FFFFFF;enable-background:new    ;}
	.st64{opacity:0.78;fill:#FFFFFF;enable-background:new    ;}
	.st65{fill:url(#SVGID_55_);}
	.st66{fill:url(#SVGID_56_);}
	.st67{fill:url(#SVGID_57_);}
	.st68{fill:url(#SVGID_58_);}
	.st69{fill:url(#SVGID_59_);}
	.st70{fill:url(#SVGID_60_);}
	.st71{fill:url(#SVGID_61_);}
	.st72{fill:url(#SVGID_62_);}
	.st73{fill:url(#SVGID_63_);}
	.st74{fill:url(#SVGID_64_);}
	.st75{fill:url(#SVGID_65_);}
	.st76{fill:url(#SVGID_66_);}
	.st77{fill:url(#SVGID_67_);}
	.st78{fill:url(#SVGID_68_);}
	.st79{fill:url(#SVGID_69_);}
	.st80{fill:url(#SVGID_70_);}
	.st81{fill:url(#SVGID_71_);}
	.st82{fill:url(#SVGID_72_);}
	.st83{fill:url(#SVGID_73_);}
	.st84{fill:url(#SVGID_74_);}
	.st85{fill:url(#SVGID_75_);}
	.st86{fill:url(#SVGID_76_);}
	.st87{fill:url(#SVGID_77_);}
	.st88{fill:url(#SVGID_78_);}
	.st89{fill:url(#SVGID_79_);}
	.st90{fill:url(#SVGID_80_);}
	.st91{fill:url(#SVGID_81_);}
	.st92{fill:url(#SVGID_82_);}
	.st93{fill:url(#SVGID_83_);}
	.st94{fill:url(#SVGID_84_);}
	.st95{fill:url(#SVGID_85_);}
</style>
<g id="Background">
</g>
<g id="Illustration">
	<g>
		
			<linearGradient id="SVGID_1_" gradientUnits="userSpaceOnUse" x1="3387.012" y1="160.68" x2="1384.3218" y2="2322.3142" gradientTransform="matrix(1 0 0 -1 0 3710)">
			<stop  offset="0" style="stop-color:#DAE3FE"/>
			<stop  offset="1" style="stop-color:#E9EFFD"/>
		</linearGradient>
		<path class="st0" d="M3108.8,2317.2C2833.4,2960,2106.5,3236.1,1537,3189c-155.5-12.9-468.4-38.7-712.7-269.5
			c-469.2-443-396.9-1369.2,52.2-1914.5c57.8-70.2,458.2-540.7,1082-534.4c456.8,4.6,777.3,262.3,816.3,294.4
			c49.2,40.6,157.9,136.9,255.7,289.8C3260.6,1414,3280.8,1915.5,3108.8,2317.2z"/>
		<g>
			<g>
				<path class="st1" d="M809,471.4c-43,232.8-238.7,1597.9,987,2014.9c0,0,356.2-864.9-954.7-2026.4
					C829.8,449.8,811.8,456.2,809,471.4z"/>
				<path class="st2" d="M911.3,685.4c15.9,74,33.3,147.5,51.3,221c18,73.4,36.9,146.6,56.6,219.6c39.4,145.9,82,291,129,434.6
					c47.1,143.6,98.3,285.9,157.1,425.2c29.2,69.7,60.8,138.4,95.1,205.8c34.3,67.3,71.3,133.4,113.4,196.3
					c2.5,3.7,7.5,4.7,11.1,2.1c3.7-2.5,4.6-7.6,2.1-11.3l0,0l0,0c-41.9-62-79-127.3-113.4-194.1s-66.3-135-95.7-204.3
					c-59.3-138.4-111.1-280.2-158.9-423.3c-47.6-143.2-90.9-287.8-131-433.4c-20.1-72.8-39.3-145.8-57.7-219.1
					S934.2,757.8,918,684.1l0,0c-0.4-1.9-2.2-3-4-2.6C912.1,681.7,910.9,683.5,911.3,685.4z"/>
			</g>
			<g>
				<path class="st3" d="M1232.3,2563.5c0,0,30.1-185.1-121.3-405.9c-140.4-204.8-490.1-683.3-546.9-923.1
					c-2.5-10.6-17.6-10.4-19.7,0.3c-22.4,114.9-55.7,407.2,90.5,730.7C823.5,2382.7,1232.3,2563.5,1232.3,2563.5z"/>
				<path class="st4" d="M593.4,1453c-1.4,25.9,0.5,51.8,3.8,77.5c0.4,3.2,0.7,6.4,1.2,9.7l1.5,9.6l3.1,19.2l3.9,19.1
					c1.3,6.3,2.4,12.8,4.2,19c12.2,50.4,28.5,99.9,49,147.6c4.7,12.1,10.6,23.7,16,35.5l8.3,17.6c1.4,2.9,2.7,5.9,4.2,8.8l4.6,8.6
					l18.3,34.4c2.9,5.8,6.4,11.3,9.8,16.8l10,16.7l10,16.7l5,8.3l5.4,8.1l21.7,32.3c3.7,5.4,7.1,10.9,10.9,16.1l11.3,15.7l22.7,31.5
					l23,31.2c7.7,10.4,15.3,20.8,23.2,31.1c15.6,20.7,31.3,41.2,47.2,61.6c15.8,20.5,31.9,40.7,48,61l48.7,60.4
					c32.5,40.2,65,80.4,96.2,121.5c7.9,10.2,15.3,20.7,22.9,31.2c3.9,5.2,7.4,10.6,11,15.9c3.6,5.4,7.3,10.6,10.7,16.1
					c6.6,11,13.7,21.8,19.6,33.3l4.6,8.5c0.7,1.4,1.6,2.8,2.3,4.3l2,4.4l8.1,17.5v0.1c0.3,0.7,1.2,1,1.9,0.7c0.7-0.3,1-1.1,0.7-1.8
					c-9.5-24.2-21.5-47.3-35-69.5c-3.3-5.6-7-10.9-10.4-16.4c-3.5-5.4-6.9-11-10.7-16.3c-7.4-10.6-14.6-21.4-22.3-31.8l-11.4-15.7
					c-3.8-5.2-7.8-10.3-11.7-15.5l-11.7-15.5l-11.9-15.3c-15.8-20.5-31.9-40.7-47.8-61.1c-32-40.6-63.9-81.2-95.4-122.2
					c-31.5-40.9-62.4-82.3-93-123.9l-22.6-31.4l-11.3-15.7c-3.8-5.2-7.3-10.6-10.9-15.9l-21.7-32l-5.4-8l-5-8.2l-10-16.5
					c-27.3-43.6-50.9-89.5-72.1-136.4c-21.3-46.9-38.5-95.6-51.6-145.4c-1.9-6.2-3-12.5-4.6-18.8l-4.5-18.8l-3.7-19l-1.8-9.5
					c-0.5-3.2-1-6.4-1.5-9.6c-0.9-6.4-2-12.7-2.8-19.1l-2.1-19.2c-1-12.9-2.1-25.7-1.8-38.7c0-0.1-0.1-0.2-0.2-0.2
					C593.5,1452.8,593.4,1452.9,593.4,1453z"/>
			</g>
		</g>
		<g>
			<g>
				<g>
					<path class="st3" d="M2746.6,1241.3c-22.2-46.2-38-94.5-41.7-147.2c-9.3-132.7,67.8-254.8,124.4-369
						c52.1-105,90.8-261.4-84.9-247.5c-140,11.1-304.5,150.6-323.3,296c-22.2,172.2,61.6,389.2-37.8,545.6
						C2244.3,1538,2144,1487.8,2144,1857c0,157.7,87.4,244.8,187.5,292.7c158,75.6,346.3,45.1,472.2-76.7
						c111.2-107.6,177.3-262.3,154.9-417.6C2936,1498.6,2813,1379.6,2746.6,1241.3z"/>
					<path class="st5" d="M2629.2,2428.2c-2.2,0-4.2-1.5-4.7-3.7c-87.1-347.6-134.5-662.6-140.9-936.5
						c-5.1-219.3,15.9-412.8,62.4-575.1c79.5-277.3,204.2-366.4,209.4-370c2.2-1.5,5.3-1,6.8,1.2s1,5.3-1.2,6.8
						c-1.3,0.9-127.6,91.4-206,366c-72.4,253.8-117.6,720.9,78.9,1505.2c0.7,2.6-0.9,5.3-3.6,5.9
						C2630,2428.1,2629.6,2428.2,2629.2,2428.2z"/>
				</g>
				<path class="st3" d="M2886.1,852.1c-6.8-1.8-14.2-2.4-22.1-1.5c-43.8,5-61.8,51.2-74.6,87.3c-11,30.9-24,68.4-17.5,101.9
					c7,36.2,45.5,65.8,73.4,29c31.7-41.8,79.3-106,79.6-161.3C2925,880,2909.5,858.5,2886.1,852.1z"/>
			</g>
			<g>
				<path class="st1" d="M3210.2,2152.1c17.9-118-25-253.4-46.4-378.2c-11.3-66-16.6-131.4-6-197.9c10.5-66.1,41.6-137.5,13-203.4
					c-57.7-132.6-194.8-72.3-273.4,27.6c-91.2,115.9-116.1,305.2-150.7,451c-20.9,87.9-52.3,178-63.3,267.6
					c-18.2,148.4,15.3,251.4,86.3,321c68.1,66.7,171.8,80.6,255,34.2C3100,2432.1,3181.3,2342.5,3210.2,2152.1z"/>
				<path class="st5" d="M2896.5,2700c-2.4,0-4.5-1.7-4.9-4.1c-0.3-1.8-30.1-181.7-30.9-430.1c-0.7-229.3,23.9-565.5,145.1-865.2
					c1-2.5,3.9-3.7,6.4-2.7s3.8,3.9,2.7,6.4c-120.6,298.2-145.1,633-144.3,861.4c0.8,247.5,30.5,426.7,30.8,428.5
					c0.5,2.7-1.4,5.2-4.1,5.7C2897,2700,2896.8,2700,2896.5,2700z"/>
			</g>
		</g>
		<g>
			
				<linearGradient id="SVGID_2_" gradientUnits="userSpaceOnUse" x1="3166.1743" y1="2771.116" x2="3092.0332" y2="2672.2612" gradientTransform="matrix(1 0 0 -1 0 3710)">
				<stop  offset="0" style="stop-color:#4F52FF"/>
				<stop  offset="1" style="stop-color:#4042E2"/>
			</linearGradient>
			<rect x="2745.2" y="1303.5" class="st6" width="132.8" height="216.3"/>
			
				<linearGradient id="SVGID_3_" gradientUnits="userSpaceOnUse" x1="2801.9446" y1="2706.5364" x2="2836.9099" y2="1849.8772" gradientTransform="matrix(1 0 0 -1 0 3710)">
				<stop  offset="0" style="stop-color:#4F52FF"/>
				<stop  offset="1" style="stop-color:#4042E2"/>
			</linearGradient>
			<path class="st7" d="M2921.8,1338.5h-214.7v-60.3c0-3.4,2.7-6.1,6.1-6.1h199.3c5.1,0,9.3,4.2,9.3,9.3L2921.8,1338.5
				L2921.8,1338.5z"/>
			<g>
				<rect x="2563.2" y="1913.6" class="st5" width="557.4" height="1075.1"/>
				
					<linearGradient id="SVGID_4_" gradientUnits="userSpaceOnUse" x1="3091.4336" y1="2745.1558" x2="2957.9797" y2="2275.595" gradientTransform="matrix(1 0 0 -1 0 3710)">
					<stop  offset="0" style="stop-color:#4F52FF"/>
					<stop  offset="1" style="stop-color:#4042E2"/>
				</linearGradient>
				<path class="st8" d="M3195.3,2006.5h-658.6l-19.1-505.8l536.7,21.4l167,443.8C3230,1984.8,3216.2,2006.5,3195.3,2006.5z"/>
				
					<linearGradient id="SVGID_5_" gradientUnits="userSpaceOnUse" x1="2948.1587" y1="2446.2859" x2="2701.022" y2="2001.4396" gradientTransform="matrix(1 0 0 -1 0 3710)">
					<stop  offset="0" style="stop-color:#4F52FF"/>
					<stop  offset="1" style="stop-color:#4042E2"/>
				</linearGradient>
				<path class="st9" d="M3057,1532.2l-491.8,5.3l2.3-53l459.6-6.7c17.8,0.8,31.5,15.8,30.8,33.5L3057,1532.2z"/>
				<g class="st10">
					
						<linearGradient id="SVGID_6_" gradientUnits="userSpaceOnUse" x1="2684.2998" y1="1258.8002" x2="3002.8" y2="1258.8002" gradientTransform="matrix(1 0 0 -1 0 3710)">
						<stop  offset="0" style="stop-color:#DAE3FE"/>
						<stop  offset="1" style="stop-color:#E9EFFD"/>
					</linearGradient>
					<path class="st11" d="M3001.7,2696.7h-316.3c-0.6,0-1.1-0.5-1.1-1.1v-488.8c0-0.6,0.5-1.1,1.1-1.1h316.3c0.6,0,1.1,0.5,1.1,1.1
						v488.8C3002.8,2696.2,3002.3,2696.7,3001.7,2696.7z"/>
					<g>
						<path class="st5" d="M2830.5,2670.1h-122.4c-0.3,0-0.6-0.3-0.6-0.6v-436.7c0-0.3,0.3-0.6,0.6-0.6h122.4c0.3,0,0.6,0.3,0.6,0.6
							v436.7C2831.2,2669.9,2830.9,2670.1,2830.5,2670.1z"/>
						<path class="st5" d="M2979,2670.1h-122.4c-0.3,0-0.6-0.3-0.6-0.6v-436.7c0-0.3,0.3-0.6,0.6-0.6H2979c0.3,0,0.6,0.3,0.6,0.6
							v436.7C2979.6,2669.9,2979.3,2670.1,2979,2670.1z"/>
					</g>
				</g>
			</g>
			<g>
				<rect x="609.4" y="1913.6" class="st5" width="557.4" height="1075.1"/>
				
					<linearGradient id="SVGID_7_" gradientUnits="userSpaceOnUse" x1="416.3227" y1="2729.0464" x2="976.5288" y2="1753.6289" gradientTransform="matrix(1 0 0 -1 0 3710)">
					<stop  offset="0" style="stop-color:#4F52FF"/>
					<stop  offset="1" style="stop-color:#4042E2"/>
				</linearGradient>
				<path class="st12" d="M534.7,2006.5h658.6l26.9-474.1l-544.5-10.3l-167,443.8C500,1984.8,513.8,2006.5,534.7,2006.5z"/>
				<g class="st10">
					
						<linearGradient id="SVGID_8_" gradientUnits="userSpaceOnUse" x1="727.2" y1="1258.8002" x2="1045.7" y2="1258.8002" gradientTransform="matrix(1 0 0 -1 0 3710)">
						<stop  offset="0" style="stop-color:#DAE3FE"/>
						<stop  offset="1" style="stop-color:#E9EFFD"/>
					</linearGradient>
					<path class="st13" d="M728.3,2696.7h316.3c0.6,0,1.1-0.5,1.1-1.1v-488.8c0-0.6-0.5-1.1-1.1-1.1H728.3c-0.6,0-1.1,0.5-1.1,1.1
						v488.8C727.2,2696.2,727.7,2696.7,728.3,2696.7z"/>
					<g>
						<path class="st5" d="M899.4,2670.1h122.4c0.3,0,0.6-0.3,0.6-0.6v-436.7c0-0.3-0.3-0.6-0.6-0.6H899.4c-0.3,0-0.6,0.3-0.6,0.6
							v436.7C898.8,2669.9,899.1,2670.1,899.4,2670.1z"/>
						<path class="st5" d="M751,2670.1h122.4c0.3,0,0.6-0.3,0.6-0.6v-436.7c0-0.3-0.3-0.6-0.6-0.6H751c-0.3,0-0.6,0.3-0.6,0.6v436.7
							C750.4,2669.9,750.7,2670.1,751,2670.1z"/>
					</g>
				</g>
				
					<linearGradient id="SVGID_9_" gradientUnits="userSpaceOnUse" x1="1119.0653" y1="3135.4297" x2="1030.0953" y2="2675.7532" gradientTransform="matrix(1 0 0 -1 0 3710)">
					<stop  offset="0" style="stop-color:#4F52FF"/>
					<stop  offset="1" style="stop-color:#4042E2"/>
				</linearGradient>
				<path class="st14" d="M673.5,1543.9l523.4-5.9l-3.3-53l-489.2,3.7c-18.9,1.2-33.3,16.5-32.2,34.2L673.5,1543.9z"/>
			</g>
			<rect x="1093.1" y="1764.3" class="st1" width="1548.9" height="1224.4"/>
			
				<linearGradient id="SVGID_10_" gradientUnits="userSpaceOnUse" x1="1968.9061" y1="2635.1975" x2="2151.7871" y2="3648.4609" gradientTransform="matrix(1 0 0 -1 0 3710)">
				<stop  offset="0" style="stop-color:#4F52FF"/>
				<stop  offset="1" style="stop-color:#4042E2"/>
			</linearGradient>
			<path class="st15" d="M2605.4,1170.4H1092.3l-167.6,576.1c-3.9,13.5-1.7,27.9,6.2,39.7l17.2,25.8c9.2,13.8,24.9,22.1,41.8,22.1
				H2703c19.5,0,37.2-11.1,45.3-28.3l16.6-35.2c4.9-10.4,5.9-22.2,2.7-33.2L2605.4,1170.4z"/>
			
				<linearGradient id="SVGID_11_" gradientUnits="userSpaceOnUse" x1="1926.4403" y1="3082.9028" x2="1733.6738" y2="1773.0776" gradientTransform="matrix(1 0 0 -1 0 3710)">
				<stop  offset="0" style="stop-color:#4F52FF"/>
				<stop  offset="1" style="stop-color:#4042E2"/>
			</linearGradient>
			<path class="st16" d="M2608.8,1170.4H1088.2v-26.1c0-9.9,8.1-17.9,18.3-18.1l1483.5-21.9c10.4-0.2,18.8,8,18.8,18.1V1170.4z"/>
			<path class="st5" d="M2071.2,2988.7H1591v-71c0-5.8,4.7-10.4,10.4-10.4h459.3c5.8,0,10.4,4.7,10.4,10.4v71H2071.2z"/>
			<path class="st5" d="M1995,2907.2h-327.8v-627.7c0-6.5,5.3-11.7,11.7-11.7h304.3c6.5,0,11.7,5.3,11.7,11.7v627.7H1995z"/>
			<path class="st17" d="M1971.9,2224.7h-281.5c-12.8,0-23.1-10.4-23.1-23.1v-20.2c0-12.2,9.4-22.2,21.5-23.1l281.5-19.6
				c13.4-0.9,24.7,9.7,24.7,23.1v39.8C1995,2214.4,1984.6,2224.7,1971.9,2224.7z"/>
			<g>
				<path class="st18" d="M2255.3,1940.7h-3.1c-81,0-151.8,57.3-151.8,138.3v145.8h154.9L2255.3,1940.7L2255.3,1940.7z"/>
				<path class="st18" d="M2100.4,2267.8v428.9c0,14.4,17,36.8,31.4,36.8h123.5v-465.8h-154.9V2267.8z"/>
				<path class="st18" d="M2297.6,1940.7h-7.9v284.1h154.9V2079C2444.7,1998,2378.6,1940.7,2297.6,1940.7z"/>
				<path class="st18" d="M2289.7,2733.5H2418c14.4,0,26.6-22.4,26.6-36.8v-428.9h-154.9L2289.7,2733.5L2289.7,2733.5z"/>
			</g>
			<g>
				<path class="st18" d="M1401.9,1940.7h-3.1c-81,0-151.8,57.3-151.8,138.3v145.8h154.9V1940.7z"/>
				<path class="st18" d="M1246.9,2267.8v428.9c0,14.4,17,36.8,31.4,36.8h123.5v-465.8h-154.9V2267.8z"/>
				<path class="st18" d="M1444.2,1940.7h-7.9v284.1h154.9V2079C1591.3,1998,1525.1,1940.7,1444.2,1940.7z"/>
				<path class="st18" d="M1436.3,2733.5h128.3c14.4,0,26.6-22.4,26.6-36.8v-428.9h-154.9V2733.5z"/>
			</g>
			<path class="st1" d="M1513.6,1766.1h-473.5c-11.7,0-22.4-5.4-29.4-14.7c-7-9.4-9.1-21.2-5.8-32.4l135.3-459.1
				c0.3-1,1.3-1.5,2.2-1.2c1,0.3,1.5,1.3,1.2,2.2L1008.3,1720c-3,10.1-1.1,20.8,5.2,29.2s16,13.3,26.5,13.3h473.5
				c1,0,1.8,0.8,1.8,1.8S1514.6,1766.1,1513.6,1766.1z"/>
			<path class="st19" d="M1785.6,2735.3h-49.5c-16.5,0-29.9-13.4-29.9-29.9v-365.7c0-16.5,13.4-29.9,29.9-29.9h49.5
				c16.5,0,29.9,13.4,29.9,29.9v365.7C1815.5,2721.9,1802.1,2735.3,1785.6,2735.3z M1736.1,2313.4c-14.5,0-26.3,11.8-26.3,26.3
				v365.7c0,14.5,11.8,26.3,26.3,26.3h49.5c14.5,0,26.3-11.8,26.3-26.3v-365.7c0-14.5-11.8-26.3-26.3-26.3H1736.1z"/>
			<path class="st19" d="M1923.6,2735.3h-49.5c-16.5,0-29.9-13.4-29.9-29.9v-365.7c0-16.5,13.4-29.9,29.9-29.9h49.5
				c16.5,0,29.9,13.4,29.9,29.9v365.7C1953.6,2721.9,1940.1,2735.3,1923.6,2735.3z M1874.2,2313.4c-14.5,0-26.3,11.8-26.3,26.3
				v365.7c0,14.5,11.8,26.3,26.3,26.3h49.5c14.5,0,26.3-11.8,26.3-26.3v-365.7c0-14.5-11.8-26.3-26.3-26.3H1874.2z"/>
			<path class="st19" d="M1785.6,2858.6h-49.5c-16.5,0-29.9-13.4-29.9-29.9v-42.1c0-16.5,13.4-29.9,29.9-29.9h49.5
				c16.5,0,29.9,13.4,29.9,29.9v42.1C1815.5,2845.2,1802.1,2858.6,1785.6,2858.6z M1736.1,2760.3c-14.5,0-26.3,11.8-26.3,26.3v42.1
				c0,14.5,11.8,26.3,26.3,26.3h49.5c14.5,0,26.3-11.8,26.3-26.3v-42.1c0-14.5-11.8-26.3-26.3-26.3H1736.1z"/>
			<path class="st19" d="M1923.6,2858.6h-49.5c-16.5,0-29.9-13.4-29.9-29.9v-42.1c0-16.5,13.4-29.9,29.9-29.9h49.5
				c16.5,0,29.9,13.4,29.9,29.9v42.1C1953.6,2845.2,1940.1,2858.6,1923.6,2858.6z M1874.2,2760.3c-14.5,0-26.3,11.8-26.3,26.3v42.1
				c0,14.5,11.8,26.3,26.3,26.3h49.5c14.5,0,26.3-11.8,26.3-26.3v-42.1c0-14.5-11.8-26.3-26.3-26.3H1874.2z"/>
			<path class="st19" d="M2458.1,2760.3h-373c-21.4,0-38.8-17.4-38.8-38.8v-645.8c0-102.1,83.1-185.2,185.2-185.2h80.1
				c102.1,0,185.2,83.1,185.2,185.2v645.8C2496.9,2742.9,2479.5,2760.3,2458.1,2760.3z M2231.5,1894.1
				c-100.1,0-181.6,81.5-181.6,181.6v645.8c0,19.4,15.8,35.2,35.2,35.2h373c19.4,0,35.2-15.8,35.2-35.2v-645.8
				c0-100.1-81.5-181.6-181.6-181.6H2231.5z"/>
			<path class="st19" d="M1604.8,2760.3h-373c-21.4,0-38.8-17.4-38.8-38.8v-645.8c0-102.1,83.1-185.2,185.2-185.2h80.1
				c102.1,0,185.2,83.1,185.2,185.2v645.8C1643.6,2742.9,1626.2,2760.3,1604.8,2760.3z M1378.3,1894.1
				c-100.1,0-181.6,81.5-181.6,181.6v645.8c0,19.4,15.8,35.2,35.2,35.2h373c19.4,0,35.2-15.8,35.2-35.2v-645.8
				c0-100.1-81.5-181.6-181.6-181.6H1378.3z"/>
			<path class="st1" d="M2657.2,1631.8c-0.8,0-1.5-0.5-1.7-1.3l-105.2-347.7c-7.2-23.8-28.7-39.8-53.5-40
				c-275.4-2.2-444.1-2.1-451.1,0.2c-0.9,0.3-2-0.2-2.3-1.1s0.1-1.9,1-2.3c8.4-3.5,287.1-1.8,452.5-0.5
				c26.4,0.2,49.3,17.3,56.9,42.6l105.2,347.7c0.3,1-0.2,2-1.2,2.2C2657.5,1631.7,2657.3,1631.8,2657.2,1631.8z"/>
		</g>
		<g>
			<g>
				
					<linearGradient id="SVGID_12_" gradientUnits="userSpaceOnUse" x1="1490.8235" y1="820.8697" x2="938.1946" y2="61.0057" gradientTransform="matrix(1 0 0 -1 0 3710)">
					<stop  offset="0" style="stop-color:#09005D"/>
					<stop  offset="1" style="stop-color:#1A0F91"/>
				</linearGradient>
				<rect x="964.8" y="2917.9" class="st20" width="863.8" height="201.3"/>
				
					<linearGradient id="SVGID_13_" gradientUnits="userSpaceOnUse" x1="1893.6061" y1="1326.4347" x2="1125.3778" y2="274.4706" gradientTransform="matrix(1 0 0 -1 0 3710)">
					<stop  offset="0" style="stop-color:#4F52FF"/>
					<stop  offset="1" style="stop-color:#4042E2"/>
				</linearGradient>
				<path class="st21" d="M1838.7,3106.3H954.5c-4.3,0-7.7-3.5-7.7-7.7V3029h897v72.1C1843.8,3104,1841.5,3106.3,1838.7,3106.3z"/>
				
					<linearGradient id="SVGID_14_" gradientUnits="userSpaceOnUse" x1="1839.3031" y1="1340.7098" x2="1070.7505" y2="288.3014" gradientTransform="matrix(1 0 0 -1 0 3710)">
					<stop  offset="0" style="stop-color:#4F52FF"/>
					<stop  offset="1" style="stop-color:#4042E2"/>
				</linearGradient>
				<path class="st22" d="M1836.2,3018.5H956.4c-5.3,0-9.6-4.3-9.6-9.6v-67.7h897v69.6C1843.8,3015.1,1840.4,3018.5,1836.2,3018.5z"
					/>
				
					<linearGradient id="SVGID_15_" gradientUnits="userSpaceOnUse" x1="1379.317" y1="1103.057" x2="1405.9988" y2="562.7477" gradientTransform="matrix(1 0 0 -1 0 3710)">
					<stop  offset="0" style="stop-color:#09005D"/>
					<stop  offset="1" style="stop-color:#1A0F91"/>
				</linearGradient>
				<path class="st23" d="M1843.8,2941.2h-897v-21.1c0-4.4,3.5-7.9,7.9-7.9h881.1c4.4,0,8,3.6,8,8V2941.2z"/>
			</g>
			<g>
				
					<linearGradient id="SVGID_16_" gradientUnits="userSpaceOnUse" x1="3673.8096" y1="4703.6255" x2="4450.9253" y2="3783.4307" gradientTransform="matrix(0.4373 -0.8993 -0.8993 -0.4373 4447.0796 8627.752)">
					<stop  offset="0" style="stop-color:#4F52FF"/>
					<stop  offset="1" style="stop-color:#4042E2"/>
				</linearGradient>
				<path class="st24" d="M2632.2,3008.1c29.1,14.1,39.3,53,22.9,86.7c-16.4,33.8-53.3,49.7-82.4,35.6c-29.1-14.1-39.3-53-22.9-86.7
					C2566.3,3009.8,2603.2,2993.9,2632.2,3008.1z"/>
				
					<linearGradient id="SVGID_17_" gradientUnits="userSpaceOnUse" x1="2529.9492" y1="952.4383" x2="2474.3188" y2="575.8651" gradientTransform="matrix(0.9989 -4.690000e-02 -4.690000e-02 -0.9989 68.8196 4075.9609)">
					<stop  offset="0" style="stop-color:#09005D"/>
					<stop  offset="1" style="stop-color:#1A0F91"/>
				</linearGradient>
				<path class="st25" d="M2584.4,3024.6l-28.2,57.9c-1.5,3.1-5.3,4.4-8.4,2.9l-34-16.5c-3.1-1.5-4.4-5.3-2.9-8.4l28.2-57.9
					c1.5-3.1,5.3-4.4,8.4-2.9l34,16.5C2584.6,3017.7,2585.9,3021.5,2584.4,3024.6z"/>
				
					<linearGradient id="SVGID_18_" gradientUnits="userSpaceOnUse" x1="1662.7488" y1="1113.3524" x2="2522.8335" y2="680.0146" gradientTransform="matrix(1 0 0 -1 0 3710)">
					<stop  offset="0" style="stop-color:#4F52FF"/>
					<stop  offset="1" style="stop-color:#4042E2"/>
				</linearGradient>
				<path class="st26" d="M2547,2993.4c-5.3,27.4-17.5,51.9-36,73.7c-10,11.8-26,17-42,13.8c-152.5-30.6-472.1-228.1-782.4-400.7
					c-20.6-11.4-34.8-24.4-25.1-44.3l21.4-44c9.6-19.8,32.7-8.7,54.3,0.2c328.3,134.9,676.5,252.4,796,361.2
					C2544.7,2963.7,2549.9,2979,2547,2993.4z"/>
				
					<linearGradient id="SVGID_19_" gradientUnits="userSpaceOnUse" x1="1669.7322" y1="1381.7853" x2="1539.9366" y2="880.9457" gradientTransform="matrix(0.9989 -4.690000e-02 -4.690000e-02 -0.9989 68.8196 4075.9609)">
					<stop  offset="0" style="stop-color:#09005D"/>
					<stop  offset="1" style="stop-color:#1A0F91"/>
				</linearGradient>
				<path class="st27" d="M1731.9,2548.4l-71.1,146.3c-1.4,3-5,4.2-8,2.8l-35.2-17.1c-3-1.4-4.2-5-2.8-8l71.1-146.3
					c1.4-3,5-4.2,8-2.8l35.2,17.1C1732.2,2541.9,1733.4,2545.5,1731.9,2548.4z"/>
				
					<linearGradient id="SVGID_20_" gradientUnits="userSpaceOnUse" x1="1350.6184" y1="1298.1877" x2="1349.4692" y2="1059.1938" gradientTransform="matrix(1 0 0 -1 0 3710)">
					<stop  offset="0" style="stop-color:#09005D"/>
					<stop  offset="1" style="stop-color:#1A0F91"/>
				</linearGradient>
				<path class="st28" d="M1408.9,2399.3l-71.1,146.3c-1.4,3-5,4.2-8,2.8l-35.2-17.1c-3-1.4-4.2-5-2.8-8l71.1-146.3
					c1.4-3,5-4.2,8-2.8l35.2,17.1C1409.2,2392.7,1410.4,2396.3,1408.9,2399.3z"/>
				
					<linearGradient id="SVGID_21_" gradientUnits="userSpaceOnUse" x1="1361.1038" y1="1306.4933" x2="1644.5018" y2="963.7791" gradientTransform="matrix(1 0 0 -1 0 3710)">
					<stop  offset="0" style="stop-color:#4F52FF"/>
					<stop  offset="1" style="stop-color:#4042E2"/>
				</linearGradient>
				<polygon class="st29" points="1764.6,2400.9 1535,2873.1 1215.1,2717.5 1444.7,2245.4 				"/>
				
					<linearGradient id="SVGID_22_" gradientUnits="userSpaceOnUse" x1="1418.6874" y1="1079.0404" x2="1353.8792" y2="840.6776" gradientTransform="matrix(1 0 0 -1 0 3710)">
					<stop  offset="0" style="stop-color:#4F52FF"/>
					<stop  offset="1" style="stop-color:#4042E2"/>
				</linearGradient>
				<polygon class="st30" points="1547.1,2848.2 1518.2,2907.6 1198.3,2752 1227.2,2692.6 				"/>
				
					<linearGradient id="SVGID_23_" gradientUnits="userSpaceOnUse" x1="1888.4225" y1="-109.6975" x2="1562.2006" y2="508.146" gradientTransform="matrix(1 0 0 -1 0 3710)">
					<stop  offset="0" style="stop-color:#09005D"/>
					<stop  offset="1" style="stop-color:#1A0F91"/>
				</linearGradient>
				<path class="st31" d="M1531.3,2880.8l-14.4,29.5c-4.4,9-14.7,13.5-24.3,10.7c-99.7-29.6-196.2-75.8-289.1-140.7
					c-8.1-5.7-10.9-16.5-6.6-25.4l14.4-29.6L1531.3,2880.8z"/>
				
					<linearGradient id="SVGID_24_" gradientUnits="userSpaceOnUse" x1="1799.5983" y1="1068.8188" x2="1705.7224" y2="1040.6563" gradientTransform="matrix(1 0 0 -1 0 3710)">
					<stop  offset="0" style="stop-color:#4F52FF"/>
					<stop  offset="1" style="stop-color:#4042E2"/>
				</linearGradient>
				<path class="st32" d="M1563.1,2837.2l-11,22.7c-1.3,2.7-4.6,3.9-7.3,2.5l-333-161.9c-2.7-1.3-3.9-4.6-2.5-7.3l11-22.7
					c1.3-2.7,4.6-3.9,7.3-2.5l333,161.9C1563.3,2831.2,1564.4,2834.5,1563.1,2837.2z"/>
				
					<linearGradient id="SVGID_25_" gradientUnits="userSpaceOnUse" x1="1385.3064" y1="1016.5356" x2="1380.1948" y2="1461.2723" gradientTransform="matrix(1 0 0 -1 0 3710)">
					<stop  offset="0" style="stop-color:#4F52FF"/>
					<stop  offset="1" style="stop-color:#4042E2"/>
				</linearGradient>
				<path class="st33" d="M1561.6,2840.2l-8.1,16.7c-1,2-3.4,2.8-5.4,1.9l-335.6-163.2c-2-1-2.8-3.4-1.9-5.4l8.1-16.7
					c1-2,3.4-2.8,5.4-1.9l335.6,163.2C1561.8,2835.8,1562.6,2838.2,1561.6,2840.2z"/>
				
					<linearGradient id="SVGID_26_" gradientUnits="userSpaceOnUse" x1="1685.0551" y1="1530.8291" x2="1581.8014" y2="1352.8811" gradientTransform="matrix(1 0 0 -1 0 3710)">
					<stop  offset="0" style="stop-color:#4F52FF"/>
					<stop  offset="1" style="stop-color:#4042E2"/>
				</linearGradient>
				<polygon class="st34" points="1766.5,2397.1 1795.3,2337.7 1475.4,2182.2 1446.6,2241.5 				"/>
				
					<linearGradient id="SVGID_27_" gradientUnits="userSpaceOnUse" x1="1952.8771" y1="3087.5854" x2="1769.9958" y2="2153.4043" gradientTransform="matrix(1 0 0 -1 0 3710)">
					<stop  offset="0" style="stop-color:#09005D"/>
					<stop  offset="1" style="stop-color:#1A0F91"/>
				</linearGradient>
				<path class="st35" d="M1782.3,2364.5l14.4-29.5c4.4-9,1.6-19.9-6.6-25.7c-84.9-60.1-180.8-107.6-289.2-140.5
					c-9.5-2.9-19.7,1.6-24,10.5l-14.4,29.6L1782.3,2364.5z"/>
				
					<linearGradient id="SVGID_28_" gradientUnits="userSpaceOnUse" x1="1973.0756" y1="1458.1157" x2="1842.1299" y2="1433.457" gradientTransform="matrix(1 0 0 -1 0 3710)">
					<stop  offset="0" style="stop-color:#4F52FF"/>
					<stop  offset="1" style="stop-color:#4042E2"/>
				</linearGradient>
				<path class="st36" d="M1767.7,2416.5l11-22.7c1.3-2.7,0.2-6-2.5-7.3l-333-161.9c-2.7-1.3-6-0.2-7.3,2.5l-11,22.7
					c-1.3,2.7-0.2,6,2.5,7.3l333,161.9C1763.1,2420.3,1766.4,2419.2,1767.7,2416.5z"/>
				
					<linearGradient id="SVGID_29_" gradientUnits="userSpaceOnUse" x1="1685.8279" y1="1531.4424" x2="1937.6057" y2="1960.6472" gradientTransform="matrix(1 0 0 -1 0 3710)">
					<stop  offset="0" style="stop-color:#4F52FF"/>
					<stop  offset="1" style="stop-color:#4042E2"/>
				</linearGradient>
				<path class="st37" d="M1769.2,2413.5l8.1-16.7c1-2,0.1-4.4-1.9-5.4l-335.6-163.2c-2-1-4.4-0.1-5.4,1.9l-8.1,16.7
					c-1,2-0.1,4.4,1.9,5.4l335.6,163.2C1765.8,2416.3,1768.2,2415.5,1769.2,2413.5z"/>
			</g>
		</g>
		<g>
			
				<linearGradient id="SVGID_30_" gradientUnits="userSpaceOnUse" x1="1735.501" y1="1535.658" x2="1383.9092" y2="1406.3962" gradientTransform="matrix(1 0 0 -1 -636.2068 3710)">
				<stop  offset="0" style="stop-color:#FEBBBA"/>
				<stop  offset="1" style="stop-color:#FF928E"/>
			</linearGradient>
			<path class="st38" d="M1088.6,2254.7c-23.9-12.9-60.1,34.3-60.1,34.3s-126.7,18.4-160.7,10.2c-34.1-8.2-68-140.8-68-140.8
				s-82.2-33.8-35.1,127.4c43.9,150.3,263.9,31.9,263.9,31.9s63.2,2.6,78.5-10.3C1122.4,2294.5,1112.6,2267.6,1088.6,2254.7z"/>
			
				<linearGradient id="SVGID_31_" gradientUnits="userSpaceOnUse" x1="1759.8389" y1="1469.4591" x2="1408.2478" y2="1340.1976" gradientTransform="matrix(1 0 0 -1 -636.2068 3710)">
				<stop  offset="0" style="stop-color:#FEBBBA"/>
				<stop  offset="1" style="stop-color:#FF928E"/>
			</linearGradient>
			<path class="st39" d="M1034.5,2282.7c0,0,7.5-28.9,30.4-35.5c22.8-6.6,22.6-2.2,19.3,4.2
				C1080.9,2257.7,1043.7,2295.8,1034.5,2282.7z"/>
			
				<linearGradient id="SVGID_32_" gradientUnits="userSpaceOnUse" x1="1294.5953" y1="1743.5542" x2="1171.5698" y2="1657.8757" gradientTransform="matrix(1 0 0 -1 0 3710)">
				<stop  offset="0" style="stop-color:#E1473D"/>
				<stop  offset="1" style="stop-color:#E9605A"/>
			</linearGradient>
			<path class="st40" d="M892.6,2295.1c-46.3-8.7-51.3-117.1-51.3-117.1s-87-61.9-60.9,104c12.6,80,72.8,98.3,158.7,75.9
				c1.1-0.3,1.8-1.2,1.8-2.3c0.3-21.2-9.1-37.9-4.1-59C931.8,2296.3,896.2,2295.7,892.6,2295.1z"/>
			<g>
				<circle class="st19" cx="1085.9" cy="1997.9" r="142.6"/>
				
					<linearGradient id="SVGID_33_" gradientUnits="userSpaceOnUse" x1="965.9" y1="1712.1001" x2="1205.9" y2="1712.1001" gradientTransform="matrix(1 0 0 -1 0 3710)">
					<stop  offset="0" style="stop-color:#FF928E"/>
					<stop  offset="1" style="stop-color:#FE7062"/>
				</linearGradient>
				<path class="st41" d="M1085.9,2117.9c-66.2,0-120-53.8-120-120s53.8-120,120-120s120,53.8,120,120
					C1205.9,2064,1152.1,2117.9,1085.9,2117.9z M1085.9,1882c-63.9,0-115.9,52-115.9,115.9s52,115.9,115.9,115.9
					s115.9-52,115.9-115.9S1149.8,1882,1085.9,1882z"/>
				
					<linearGradient id="SVGID_34_" gradientUnits="userSpaceOnUse" x1="1605.8359" y1="979.2831" x2="1739.4442" y2="1672.9841" gradientTransform="matrix(1 0 0 -1 -636.2068 3710)">
					<stop  offset="0" style="stop-color:#FF928E"/>
					<stop  offset="1" style="stop-color:#FE7062"/>
				</linearGradient>
				<path class="st42" d="M1130.4,2156.4h-92.5V2116c0-0.9,0.7-1.6,1.6-1.6h88.2c1.5,0,2.7,1.2,2.7,2.7L1130.4,2156.4L1130.4,2156.4
					z"/>
				
					<linearGradient id="SVGID_35_" gradientUnits="userSpaceOnUse" x1="1706.561" y1="1200.1615" x2="1724.4972" y2="1539.5719" gradientTransform="matrix(1 0 0 -1 -636.2068 3710)">
					<stop  offset="0" style="stop-color:#E1473D"/>
					<stop  offset="1" style="stop-color:#E9605A"/>
				</linearGradient>
				<path class="st43" d="M1094.7,2372h-22c-0.8,0-1.4-0.6-1.4-1.4V2144c0-0.8,0.6-1.4,1.4-1.4h22c0.8,0,1.4,0.6,1.4,1.4v226.6
					C1096.1,2371.3,1095.5,2372,1094.7,2372z"/>
				
					<linearGradient id="SVGID_36_" gradientUnits="userSpaceOnUse" x1="1622.9525" y1="1053.4148" x2="1756.9756" y2="1749.2689" gradientTransform="matrix(1 0 0 -1 -636.2068 3710)">
					<stop  offset="0" style="stop-color:#FF928E"/>
					<stop  offset="1" style="stop-color:#FE7062"/>
				</linearGradient>
				<path class="st44" d="M1134.4,2158.1h-99.9c-0.5,0-0.9-0.4-0.9-0.9v-15.8c0-0.5,0.4-0.9,0.9-0.9h99.9c0.5,0,0.9,0.4,0.9,0.9
					v15.8C1135.3,2157.7,1134.9,2158.1,1134.4,2158.1z"/>
				<g>
					
						<linearGradient id="SVGID_37_" gradientUnits="userSpaceOnUse" x1="1005.2999" y1="1715.1" x2="1062.2" y2="1715.1" gradientTransform="matrix(1 0 0 -1 0 3710)">
						<stop  offset="0" style="stop-color:#E1473D"/>
						<stop  offset="1" style="stop-color:#E9605A"/>
					</linearGradient>
					<path class="st45" d="M1005.3,1945.3h25.3c10.3,0,17.8,2,22.5,6s7.1,10.4,7.1,19.1c0,5.7-1.2,10.6-3.7,14.4
						c-2.5,3.9-5.9,6.2-10.2,7v0.7c5.6,1.4,9.7,4,12.2,7.9c2.5,3.8,3.7,9,3.7,15.3c0,9-2.4,16.1-7.2,21.2
						c-4.8,5.1-11.4,7.6-19.8,7.6h-29.9L1005.3,1945.3L1005.3,1945.3z M1022.7,1985.3h8.5c3.9,0,6.6-1,8.2-3.1s2.4-5.2,2.4-9.3
						c0-4.1-0.9-7.1-2.7-8.9c-1.8-1.8-4.7-2.7-8.6-2.7h-7.8V1985.3z M1022.7,2000.7v27.8h9.3c3.8,0,6.7-1.2,8.6-3.5
						c1.9-2.4,2.8-6,2.8-10.9c0-8.9-3.9-13.3-11.7-13.3L1022.7,2000.7L1022.7,2000.7z"/>
					
						<linearGradient id="SVGID_38_" gradientUnits="userSpaceOnUse" x1="1079.1" y1="1715.05" x2="1096.4796" y2="1715.05" gradientTransform="matrix(1 0 0 -1 0 3710)">
						<stop  offset="0" style="stop-color:#E1473D"/>
						<stop  offset="1" style="stop-color:#E9605A"/>
					</linearGradient>
					<path class="st46" d="M1079.1,2044.6v-99.3h17.4v99.3H1079.1z"/>
					
						<linearGradient id="SVGID_39_" gradientUnits="userSpaceOnUse" x1="1117.4999" y1="1715.05" x2="1180.6" y2="1715.05" gradientTransform="matrix(1 0 0 -1 0 3710)">
						<stop  offset="0" style="stop-color:#E1473D"/>
						<stop  offset="1" style="stop-color:#E9605A"/>
					</linearGradient>
					<path class="st47" d="M1180.6,1994c0,16.4-3.3,28.9-10,37.6s-16.3,13-28.8,13h-24.3v-99.3h26.5c11.5,0,20.5,4.3,27,12.8
						C1177.4,1966.7,1180.6,1978.6,1180.6,1994z M1161.6,1994.6c0-22.2-6.1-33.3-18.3-33.3h-7.4v67.1h6c6.7,0,11.7-2.8,14.9-8.5
						S1161.6,2005.9,1161.6,1994.6z"/>
				</g>
			</g>
			
				<linearGradient id="SVGID_40_" gradientUnits="userSpaceOnUse" x1="6457.8633" y1="1450.1025" x2="6444.4375" y2="1391.3268" gradientTransform="matrix(1 0 0 -1 -5366.6899 3710)">
				<stop  offset="0" style="stop-color:#FEBBBA"/>
				<stop  offset="1" style="stop-color:#FF928E"/>
			</linearGradient>
			<path class="st48" d="M1083.3,2260.2c0,0-26.6-1.6-26.2,15.1c0.4,16.8-1.2,40.5,13.1,41.5c14.3,1,40.8,3.7,42.9-18.1
				C1115.2,2277,1085.8,2252.4,1083.3,2260.2z"/>
			<g>
				
					<linearGradient id="SVGID_41_" gradientUnits="userSpaceOnUse" x1="-2286.5559" y1="540.0323" x2="-1985.8157" y2="639.1949" gradientTransform="matrix(1 0 0 -1 2883.2766 3710)">
					<stop  offset="0" style="stop-color:#09005D"/>
					<stop  offset="1" style="stop-color:#1A0F91"/>
				</linearGradient>
				<path class="st49" d="M711.5,3122.8c-2.9-10.2-12.3-17.1-22.8-16.8l-10.5,0.3c-55.1,13.2-83.8,45.1-95.1,60.8
					c-0.4,0.6,0,1.5,0.7,1.5c17.4,1.4,57.8,4.2,92,3.2c22.8-0.6,35-1.5,41.1-4C716.7,3150.2,714.2,3132.7,711.5,3122.8z"/>
				<path class="st5" d="M676.1,3170.8c22.8-0.6,34.6-3.3,40.7-5.8c0,2.3,0,4.6-0.1,7c-0.1,2.6-2,4.6-4.3,4.6l-125.2-0.8
					c-4,0-6.3-4.7-4.6-8.3C599,3168.8,640.8,3171.8,676.1,3170.8z"/>
			</g>
			
				<linearGradient id="SVGID_42_" gradientUnits="userSpaceOnUse" x1="-2198.1616" y1="680.1123" x2="-2215.9724" y2="524.6719" gradientTransform="matrix(1 0 0 -1 2883.2766 3710)">
				<stop  offset="0" style="stop-color:#FEBBBA"/>
				<stop  offset="1" style="stop-color:#FF928E"/>
			</linearGradient>
			<path class="st50" d="M660.6,3070.4l8.7,42.1c0.6,3.1,3,5.4,5.9,5.7c3.5,0.3,8.5,0.5,13.6-0.2c4.5-0.7,7.7-5.2,6.9-10.2
				l-6.1-37.4L660.6,3070.4L660.6,3070.4z"/>
			<g>
				<path class="st5" d="M841.8,3170.8c-22.8-0.6-34.6-3.3-40.7-5.8c0,2.3,0,4.6,0.1,7c0.1,2.6,2,4.6,4.3,4.6l125.2-0.8
					c4,0,6.3-4.7,4.6-8.3C918.9,3168.8,877.1,3171.8,841.8,3170.8z"/>
				
					<linearGradient id="SVGID_43_" gradientUnits="userSpaceOnUse" x1="-2072.3098" y1="552.3838" x2="-1792.7783" y2="644.5535" gradientTransform="matrix(1 0 0 -1 2883.2766 3710)">
					<stop  offset="0" style="stop-color:#09005D"/>
					<stop  offset="1" style="stop-color:#1A0F91"/>
				</linearGradient>
				<path class="st51" d="M935.3,3167.4c-0.2-0.3-0.3-0.6-0.5-0.9c-11.1-15.5-39.2-46.2-94.9-59.6l-26.7-0.8c0,0-11.9,20.7-12.1,59
					c6.1,2.5,17.9,5.2,40.7,5.8C877.1,3171.8,918.9,3168.8,935.3,3167.4z"/>
			</g>
			
				<linearGradient id="SVGID_44_" gradientUnits="userSpaceOnUse" x1="-2053.1106" y1="663.491" x2="-2070.9211" y2="508.052" gradientTransform="matrix(1 0 0 -1 2883.2766 3710)">
				<stop  offset="0" style="stop-color:#FEBBBA"/>
				<stop  offset="1" style="stop-color:#FF928E"/>
			</linearGradient>
			<path class="st52" d="M808.3,3065.6c0.3,2,4,32.2,5.4,44c0.3,2.8,2.4,4.9,4.9,5.2c4.5,0.5,11.9,1,18.3-0.3c3.5-0.7,6-4,6-7.9
				v-47.5L808.3,3065.6z"/>
			
				<linearGradient id="SVGID_45_" gradientUnits="userSpaceOnUse" x1="1408.3318" y1="1223.4895" x2="1292.5131" y2="226.6277" gradientTransform="matrix(1 0 0 -1 -636.2068 3710)">
				<stop  offset="0" style="stop-color:#09005D"/>
				<stop  offset="1" style="stop-color:#1A0F91"/>
			</linearGradient>
			<path class="st53" d="M786.8,2513.4c0,0,64.4,244.8,63.2,552.8c0,5.6-4,10.5-9.5,11.6c-8.1,1.7-20,3.7-29.9,3.5
				c-5.3-0.1-9.7-4-10.5-9.2c-9-53-60.9-351.3-90.4-399.8c0,0-19.4,265.7-13.2,403.6c0.2,3.4-2.4,6.4-5.8,6.8
				c-5.2,0.6-13.4,1.1-24-0.1c-4-0.4-7.2-3.4-7.8-7.4c-6.4-44.8-43.5-311.6-41.9-503.8c0.1-10.8,28.7-58,28.7-58L786.8,2513.4
				L786.8,2513.4z"/>
			
				<linearGradient id="SVGID_46_" gradientUnits="userSpaceOnUse" x1="-2298.1511" y1="1470.2263" x2="-2235.6973" y2="1649.5289" gradientTransform="matrix(1 0 0 -1 2883.2766 3710)">
				<stop  offset="0" style="stop-color:#4F52FF"/>
				<stop  offset="1" style="stop-color:#4042E2"/>
			</linearGradient>
			<path class="st54" d="M586.1,2300.5c-17.5-47.9-11.2-105.8-11.1-106.4l4.8,0.6c-0.1,0.6-6.3,57.3,10.8,104.1L586.1,2300.5z"/>
			
				<linearGradient id="SVGID_47_" gradientUnits="userSpaceOnUse" x1="1492.7848" y1="2246.2031" x2="1319.7886" y2="2058.3787" gradientTransform="matrix(1 0 0 -1 0 3710)">
				<stop  offset="0" style="stop-color:#FF928E"/>
				<stop  offset="1" style="stop-color:#FE7062"/>
			</linearGradient>
			<path class="st55" d="M559,2164.1c7.7-7.4,17.1-15.1,26.7-19.8c12.8-6.2,28.2-7.8,42.1-10.2c16-2.8,32.2-5.1,48.4-6.8
				c24.2-2.5,45.4-0.9,69.7-0.4c7.8,0.1,34.9,8,55.1,14c24.8,7.3,42.6,29.2,44.1,55c0.2,3.4,0.3,6.7,0.2,10
				c-0.5,48.8-1.6,65.2-11.1,113.4c-0.3-0.3-47.1,149.7-38.8,210.3c0.7,5.2-2.8,10-7.9,10.7c-28,4.2-111.7,14.5-155.1-2.9
				c-2.5-1-4.2-3.4-4.2-6.2c0.1-20-1.7-107.1-34.7-211.6c-1.2-3.9-2.2-7.9-3.1-11.9c-23.9,50.5-23,91.7-11.6,123.9
				c-12.8,13.6-31.6,25.4-44.8,32.7c-39.9-49.3-57.4-110.9-43.3-173.3c5.7-25.3,16-48.3,28.4-70.9
				C530.2,2200.4,542.7,2179.9,559,2164.1z"/>
			
				<linearGradient id="SVGID_48_" gradientUnits="userSpaceOnUse" x1="-2349.6768" y1="1192.3376" x2="-2192.0005" y2="1192.3376" gradientTransform="matrix(1 0 0 -1 2883.2766 3710)">
				<stop  offset="0" style="stop-color:#FEBBBA"/>
				<stop  offset="1" style="stop-color:#FF928E"/>
			</linearGradient>
			<path class="st56" d="M655.1,2519.5c-11.9-6.7-58.2-35.4-76.7-87.8c-12.8,13.6-31.5,25.4-44.8,32.7
				c19.7,24.4,46.4,48.8,81.8,72.7l0,0c1.3,27.2,22.2,37.3,27,46.1s-2,6.8,1,17.9c3,11.1,34.8-17.6,42.3-24.2c7.6-6.5,3-24.7,3-24.7
				s0.5-3.8,2.5-11.3C693.2,2533.4,655.2,2519.5,655.1,2519.5z"/>
			<g>
				
					<linearGradient id="SVGID_49_" gradientUnits="userSpaceOnUse" x1="-2158.9155" y1="1675.5979" x2="-2226.9199" y2="1381.7217" gradientTransform="matrix(1 0 0 -1 2883.2766 3710)">
					<stop  offset="0" style="stop-color:#FEBBBA"/>
					<stop  offset="1" style="stop-color:#FF928E"/>
				</linearGradient>
				<path class="st57" d="M673,2057.3l-8.4,85.5c0,0,48.1,14.5,83.1-10.2l-24.6-77.7L673,2057.3z"/>
				<g>
					
						<linearGradient id="SVGID_50_" gradientUnits="userSpaceOnUse" x1="-2625.2327" y1="5416.8359" x2="-2745.8735" y2="5257.2378" gradientTransform="matrix(0.9332 -0.3594 -0.3594 -0.9332 5129.5186 6105.0361)">
						<stop  offset="0" style="stop-color:#FEBBBA"/>
						<stop  offset="1" style="stop-color:#FF928E"/>
					</linearGradient>
					<path class="st58" d="M754.7,1984.4c0.6,1.5,3,106.6,3,106.6l-60.1,0.1l-17.1-99.3C680.5,1991.8,745.1,1959.5,754.7,1984.4z"/>
					
						<linearGradient id="SVGID_51_" gradientUnits="userSpaceOnUse" x1="-2717.4265" y1="5378.5566" x2="-2573.374" y2="5378.5566" gradientTransform="matrix(0.9332 -0.3594 -0.3594 -0.9332 5129.5186 6105.0361)">
						<stop  offset="0" style="stop-color:#09005D"/>
						<stop  offset="1" style="stop-color:#1A0F91"/>
					</linearGradient>
					<path class="st59" d="M701.1,2004.2c-2,1.8-2.9,4.4-2.7,7.1l4.8,52.2c0.1,0.8,0.2,1.6,0.5,2.3c1.6,4.1,7.7,16.7,20.5,9.7
						c10.9-6,21-11.3,29.2-11.5c4.8-0.1,8.7,3.7,8.8,8.5c0.2,9.9,0.2,29.8-2.3,47.5c-0.6,4.4-4.6,7.6-9.1,7.3
						c-11.8-0.7-34.8-2.9-53.2-8.8c-3-1-5.3-3.5-5.8-6.7c-2.5-13.8-9.8-52.4-13.6-63c-3.5-9.8-17-13.2-23.3-14.3
						c-2.4-0.4-4.5-1.8-5.8-3.8c-4-6.1-9.7-19.2,6.1-29.2c3.9-2.5,5.1-7.7,2.7-11.7c-4.3-7.1-7.4-18.2,5.1-27.6
						c12.7-9.5,24.9-5,32.4-0.2c3.3,2.1,7.8,2,10.7-0.6c1.3-1.2,3.1-1.8,5.5-1.2c4.6,1.2,9.2-1.3,10.4-5.9c2-7.9,7.6-16.7,22.1-17.5
						c26.6-1.5,36,26.2,33,44.4c-3,18.2-31.9,18.1-47.6,12.9C718.1,1990.2,706.5,1999.2,701.1,2004.2z"/>
					
						<linearGradient id="SVGID_52_" gradientUnits="userSpaceOnUse" x1="-2799.6973" y1="5291.1172" x2="-2704.2031" y2="5389.0913" gradientTransform="matrix(0.9332 -0.3594 -0.3594 -0.9332 5129.5186 6105.0361)">
						<stop  offset="0" style="stop-color:#FEBBBA"/>
						<stop  offset="1" style="stop-color:#FF928E"/>
					</linearGradient>
					<path class="st60" d="M683,2067.3c0,0,1.1-31-11.4-35.7s-27.6,2.6-19.2,23.2C662.8,2080.3,683,2067.3,683,2067.3z"/>
				</g>
			</g>
		</g>
		<g>
			<g>
				
					<linearGradient id="SVGID_53_" gradientUnits="userSpaceOnUse" x1="880.0738" y1="2587.8665" x2="1055.1743" y2="2791.1077" gradientTransform="matrix(1 0 0 -1 0 3710)">
					<stop  offset="0" style="stop-color:#FF928E"/>
					<stop  offset="1" style="stop-color:#FE7062"/>
				</linearGradient>
				<circle class="st61" cx="1058.7" cy="914.8" r="130.5"/>
				
					<linearGradient id="SVGID_54_" gradientUnits="userSpaceOnUse" x1="1154.1136" y1="2939.343" x2="636.3369" y2="2157.1299" gradientTransform="matrix(1 0 0 -1 0 3710)">
					<stop  offset="0" style="stop-color:#FF928E"/>
					<stop  offset="1" style="stop-color:#FE7062"/>
				</linearGradient>
				<circle class="st62" cx="1058.7" cy="914.8" r="126.2"/>
				<path class="st63" d="M954.7,867.7c-0.8,0-1.6-0.2-2.4-0.6c-2.6-1.3-3.7-4.5-2.3-7.1c20.9-41.3,62.5-67,108.8-67
					c7.4,0,14.8,0.7,22,2c2.9,0.5,4.8,3.3,4.3,6.2s-3.3,4.8-6.2,4.3c-6.6-1.2-13.3-1.8-20.1-1.8c-42.2,0-80.3,23.4-99.3,61.2
					C958.5,866.6,956.6,867.7,954.7,867.7z"/>
				<ellipse class="st64" cx="1061.5" cy="917.6" rx="106.8" ry="106.8"/>
				<g>
					
						<linearGradient id="SVGID_55_" gradientUnits="userSpaceOnUse" x1="1160.3385" y1="3140.2627" x2="1122.9916" y2="3006.2524" gradientTransform="matrix(1 0 0 -1 0 3710)">
						<stop  offset="0" style="stop-color:#FF928E"/>
						<stop  offset="1" style="stop-color:#FE7062"/>
					</linearGradient>
					<path class="st65" d="M1051,997v-11.6c-12.1-0.5-24.1-3.3-32.6-7.1c-3-1.3-4.6-4.7-3.7-7.9l3-10.8c1.1-4,5.4-6,9.2-4.4
						c8.4,3.5,18.9,6.3,30.1,6.3c11.7,0,20.4-4,20.4-12.1c0-7.3-6.7-11.7-22.9-16c-23.1-6.3-39.8-16.4-39.8-36.8
						c0-18.4,13.4-32.4,36.8-36.2v-11.6c0-3.7,3-6.8,6.8-6.8h6.8c3.7,0,6.8,3,6.8,6.8v10.4c11.2,0.4,19.4,2.4,25.8,4.6
						c3.3,1.2,5.1,4.7,4.2,8.1l-2.7,10c-1,3.9-5.2,6-8.9,4.6c-6-2.3-14.4-4.6-25.3-4.6c-13.8,0-17.8,5.7-17.8,10.9
						c0,6.3,8.3,10.7,26.3,16.2c25.7,7.7,36.4,18.4,36.4,37.6c0,17.6-13.1,33.4-38.4,37.4v13c0,3.7-3,6.8-6.8,6.8h-6.8
						C1054,1003.7,1051,1000.7,1051,997z"/>
				</g>
			</g>
			<g>
				
					<linearGradient id="SVGID_56_" gradientUnits="userSpaceOnUse" x1="1119.3376" y1="2589.0618" x2="1424.157" y2="2942.8696" gradientTransform="matrix(1 0 0 -1 0 3710)">
					<stop  offset="0" style="stop-color:#FF928E"/>
					<stop  offset="1" style="stop-color:#FE7062"/>
				</linearGradient>
				<circle class="st66" cx="1430.3" cy="760" r="227.3"/>
				
					<linearGradient id="SVGID_57_" gradientUnits="userSpaceOnUse" x1="1596.3965" y1="3200.9243" x2="695.0366" y2="1839.2266" gradientTransform="matrix(1 0 0 -1 0 3710)">
					<stop  offset="0" style="stop-color:#FF928E"/>
					<stop  offset="1" style="stop-color:#FE7062"/>
				</linearGradient>
				<circle class="st67" cx="1430.3" cy="760" r="219.7"/>
				<path class="st63" d="M1249.2,674c-0.8,0-1.6-0.2-2.4-0.6c-2.6-1.3-3.7-4.5-2.3-7.1c35.6-70.6,106.9-114.5,185.9-114.5
					c12.6,0,25.2,1.1,37.5,3.4c2.9,0.5,4.8,3.3,4.3,6.2s-3.3,4.8-6.2,4.3c-11.7-2.1-23.7-3.2-35.6-3.2c-75,0-142.6,41.6-176.4,108.6
					C1253,673,1251.1,674,1249.2,674z"/>
				
					<ellipse transform="matrix(0.7071 -0.7071 0.7071 0.7071 -120.4707 1238.778)" class="st64" cx="1435.1" cy="764.8" rx="185.9" ry="185.9"/>
				<g>
					
						<linearGradient id="SVGID_58_" gradientUnits="userSpaceOnUse" x1="1494.5002" y1="3211.1187" x2="1459.35" y2="3046.3525" gradientTransform="matrix(1 0 0 -1 0 3710)">
						<stop  offset="0" style="stop-color:#FF928E"/>
						<stop  offset="1" style="stop-color:#FE7062"/>
					</linearGradient>
					<path class="st68" d="M1416.9,903v-20.2c-21.1-0.8-41.9-5.8-56.8-12.3c-5.3-2.3-8-8.3-6.5-13.8l5.1-18.8
						c1.9-6.9,9.4-10.5,16-7.7c14.7,6.2,32.8,11,52.4,11c20.3,0,35.5-6.9,35.5-21c0-12.7-11.7-20.3-39.9-27.9
						c-40.3-11-69.2-28.6-69.2-64c0-32,23.4-56.5,64-63V645c0-6.5,5.3-11.8,11.8-11.8h11.9c6.5,0,11.8,5.3,11.8,11.8v18.2
						c19.5,0.8,33.7,4.1,45,8.1c5.8,2,8.9,8.3,7.3,14.2l-4.7,17.4c-1.8,6.7-9,10.4-15.5,7.9c-10.4-3.9-25.1-8-44.1-8
						c-24.1,0-31,10-31,18.9c0,11,14.5,18.6,45.8,28.2c44.8,13.4,63.3,32,63.3,65.4c0,30.6-22.7,58.2-66.8,65.1V903
						c0,6.5-5.3,11.8-11.8,11.8h-11.9C1422.1,914.8,1416.9,909.5,1416.9,903z"/>
				</g>
			</g>
			<g>
				
					<linearGradient id="SVGID_59_" gradientUnits="userSpaceOnUse" x1="1267.1001" y1="2070.9722" x2="1580.7557" y2="2435.0361" gradientTransform="matrix(1 0 0 -1 0 3710)">
					<stop  offset="0" style="stop-color:#FF928E"/>
					<stop  offset="1" style="stop-color:#FE7062"/>
				</linearGradient>
				<circle class="st69" cx="1587.1" cy="1267.6" r="233.8"/>
				
					<linearGradient id="SVGID_60_" gradientUnits="userSpaceOnUse" x1="1757.9962" y1="2700.5754" x2="830.5083" y2="1299.4056" gradientTransform="matrix(1 0 0 -1 0 3710)">
					<stop  offset="0" style="stop-color:#FF928E"/>
					<stop  offset="1" style="stop-color:#FE7062"/>
				</linearGradient>
				<circle class="st70" cx="1587.1" cy="1267.6" r="226.1"/>
				<path class="st63" d="M1400.6,1179c-0.8,0-1.6-0.2-2.4-0.6c-2.6-1.3-3.7-4.5-2.3-7.1c36.6-72.6,109.9-117.7,191.1-117.7
					c12.9,0,25.9,1.2,38.6,3.5c2.9,0.5,4.8,3.3,4.3,6.2c-0.5,2.9-3.3,4.8-6.2,4.3c-12-2.2-24.4-3.3-36.7-3.3
					c-77.2,0-146.8,42.9-181.7,111.9C1404.4,1177.9,1402.6,1179,1400.6,1179z"/>
				<ellipse class="st64" cx="1592" cy="1272.5" rx="191.3" ry="191.3"/>
				<g>
					
						<linearGradient id="SVGID_61_" gradientUnits="userSpaceOnUse" x1="1699.3094" y1="2723.8186" x2="1578.4802" y2="2389.8916" gradientTransform="matrix(1 0 0 -1 0 3710)">
						<stop  offset="0" style="stop-color:#FF928E"/>
						<stop  offset="1" style="stop-color:#FE7062"/>
					</linearGradient>
					<path class="st71" d="M1573.2,1414.7v-20.8c-21.7-0.9-43.2-6-58.4-12.7c-5.4-2.4-8.2-8.5-6.7-14.2l5.3-19.4
						c1.9-7.1,9.7-10.8,16.5-7.9c15.1,6.3,33.8,11.4,53.9,11.4c20.9,0,36.5-7.1,36.5-21.6c0-13.1-12-20.9-41.1-28.7
						c-41.4-11.3-71.2-29.4-71.2-65.9c0-32.9,24.1-58.1,65.9-64.8v-20.8c0-6.7,5.4-12.1,12.1-12.1h12.2c6.7,0,12.1,5.4,12.1,12.1
						v18.7c20.1,0.8,34.7,4.2,46.3,8.3c5.9,2.1,9.2,8.5,7.5,14.6l-4.9,17.9c-1.9,6.9-9.3,10.7-16,8.2c-10.7-4-25.8-8.2-45.4-8.2
						c-24.8,0-31.9,10.3-31.9,19.5c0,11.3,14.9,19.1,47.1,29.1c46.1,13.8,65.2,32.9,65.2,67.3c0,31.5-23.4,59.9-68.7,67v23.3
						c0,6.7-5.4,12.1-12.1,12.1h-12.2C1578.6,1426.9,1573.2,1421.4,1573.2,1414.7z"/>
				</g>
			</g>
			<g>
				
					<linearGradient id="SVGID_62_" gradientUnits="userSpaceOnUse" x1="1652.5435" y1="2488.8633" x2="1882.3566" y2="2755.6104" gradientTransform="matrix(1 0 0 -1 0 3710)">
					<stop  offset="0" style="stop-color:#FF928E"/>
					<stop  offset="1" style="stop-color:#FE7062"/>
				</linearGradient>
				<circle class="st72" cx="1887" cy="949" r="171.3"/>
				
					<linearGradient id="SVGID_63_" gradientUnits="userSpaceOnUse" x1="2012.2117" y1="2950.1592" x2="1332.6484" y2="1923.5328" gradientTransform="matrix(1 0 0 -1 0 3710)">
					<stop  offset="0" style="stop-color:#FF928E"/>
					<stop  offset="1" style="stop-color:#FE7062"/>
				</linearGradient>
				<circle class="st73" cx="1887" cy="949" r="165.6"/>
				<path class="st63" d="M1750.5,885.5c-0.8,0-1.6-0.2-2.4-0.6c-2.6-1.3-3.7-4.5-2.3-7.1c27.1-53.7,81.2-87,141.3-87
					c9.6,0,19.2,0.9,28.5,2.6c2.9,0.5,4.8,3.3,4.3,6.2s-3.3,4.8-6.2,4.3c-8.7-1.6-17.7-2.4-26.6-2.4c-56,0-106.6,31.1-131.8,81.2
					C1754.3,884.5,1752.4,885.5,1750.5,885.5z"/>
				
					<ellipse transform="matrix(0.7071 -0.7071 0.7071 0.7071 -119.858 1615.9556)" class="st64" cx="1890.7" cy="952.7" rx="140.2" ry="140.2"/>
				<g>
					
						<linearGradient id="SVGID_64_" gradientUnits="userSpaceOnUse" x1="1970.4081" y1="2946.1653" x2="1889.1233" y2="2746.248" gradientTransform="matrix(1 0 0 -1 0 3710)">
						<stop  offset="0" style="stop-color:#FF928E"/>
						<stop  offset="1" style="stop-color:#FE7062"/>
					</linearGradient>
					<path class="st74" d="M1876.9,1056.9v-15.3c-15.9-0.6-31.6-4.4-42.8-9.3c-4-1.7-6-6.2-4.9-10.4l3.9-14.2
						c1.4-5.2,7.1-7.9,12.1-5.8c11.1,4.6,24.8,8.3,39.5,8.3c15.3,0,26.7-5.2,26.7-15.8c0-9.6-8.8-15.3-30.1-21
						c-30.4-8.3-52.2-21.5-52.2-48.3c0-24.1,17.7-42.6,48.3-47.5v-15.3c0-4.9,4-8.9,8.9-8.9h9c4.9,0,8.9,4,8.9,8.9V876
						c14.7,0.6,25.4,3.1,33.9,6.1c4.4,1.5,6.7,6.2,5.5,10.7l-3.6,13.1c-1.4,5.1-6.8,7.8-11.7,6c-7.8-3-18.9-6-33.3-6
						c-18.2,0-23.4,7.5-23.4,14.3c0,8.3,10.9,14,34.5,21.3c33.7,10.1,47.8,24.1,47.8,49.3c0,23.1-17.1,43.9-50.4,49.1v17.1
						c0,4.9-4,8.9-8.9,8.9h-9C1880.9,1065.8,1876.9,1061.8,1876.9,1056.9z"/>
				</g>
			</g>
		</g>
		<g>
			<g>
				
					<linearGradient id="SVGID_65_" gradientUnits="userSpaceOnUse" x1="14754.0303" y1="882.8105" x2="15014.7031" y2="1516.325" gradientTransform="matrix(0.9998 -1.890000e-02 -1.890000e-02 -0.9998 -11929.6699 3755.9146)">
					<stop  offset="0" style="stop-color:#09005D"/>
					<stop  offset="1" style="stop-color:#1A0F91"/>
				</linearGradient>
				<path class="st75" d="M3080.3,2333c-19-70.4-77.8-128.2-143.3-142.8c-12-2.7-19-14.9-16.2-27c0-0.1,0-0.2,0.1-0.3
					c9.5-40.9-16.7-73.5-56.3-82.7s-77.5,8.6-87,49.5c-6.4,27.6,1.8,58.7,20,78.8c7.5,8.3,8.1,20.7,0.8,29.2
					c-39.9,46.8-56.2,118.2-38.9,182c25.4,94.1,113.9,136.1,202.5,112.1S3105.7,2427,3080.3,2333z"/>
				
					<linearGradient id="SVGID_66_" gradientUnits="userSpaceOnUse" x1="2761.3008" y1="1462.6404" x2="2493.2808" y2="1209.9985" gradientTransform="matrix(1 0 0 -1 0 3710)">
					<stop  offset="0" style="stop-color:#A22B25"/>
					<stop  offset="1" style="stop-color:#C0423C"/>
				</linearGradient>
				<path class="st76" d="M2604.8,2231.7c0.6-0.3,1.3-0.5,1.9-0.6c5.9-0.9,8.2,5.8,13.4,6.2c1,0.1,2.1-0.1,2.6-1
					c1.4-2.6-0.4-4.4-1.1-6.7c-0.7-2.3-0.4-4.9,0.4-7.2c0.9-3,2.6-5.9,4.6-8.3c0,0,0.8,9.2,7.9,14.8c6.1,4.9,9.2,15.9,5.3,25.1
					c-8.1,33.9-20.2,78.8,31.1,110.5s121-63.9,121-63.9l-33.3,113c0,0-54,41.4-118.7-14.2c-64.7-55.5-24.1-138.9-24.1-139
					c-0.1,0.3-8.9-4.4-9.4-4.8c-3.9-3.5-5-9.2-5.6-14.4c-0.2-1.7-0.3-3.5,0.2-5.2C2601.4,2234.3,2602.9,2232.6,2604.8,2231.7z"/>
				
					<linearGradient id="SVGID_67_" gradientUnits="userSpaceOnUse" x1="3480.8003" y1="1887.7371" x2="3307.804" y2="1724.6265" gradientTransform="matrix(1 0 0 -1 0 3710)">
					<stop  offset="0" style="stop-color:#FF928E"/>
					<stop  offset="1" style="stop-color:#FE7062"/>
				</linearGradient>
				<path class="st77" d="M2796.2,2288.3c15.1-4.8,59.1-14.1,101.8,23.9c7.2,6.4,10.4,16.4,8,25.8c-10.5,41.8-38,165.1-10.8,217.7
					c0,0-45,51.6-96,11.7c0,0-24.4-97.7-54.7-140.3c-20.9-29.4,30.4-112.3,43.4-132.4C2789.8,2291.6,2792.7,2289.4,2796.2,2288.3z"
					/>
				
					<linearGradient id="SVGID_68_" gradientUnits="userSpaceOnUse" x1="2816.6438" y1="1324.98" x2="2860.5813" y2="1643.5283" gradientTransform="matrix(1 0 0 -1 0 3710)">
					<stop  offset="0" style="stop-color:#A22B25"/>
					<stop  offset="1" style="stop-color:#C0423C"/>
				</linearGradient>
				<path class="st78" d="M2836.5,2204.9c0,0,23.6,63,25.9,91c0,0-24.6,11.7-48.3-6.8c0,0-3.6-63.3-7.4-74.6L2836.5,2204.9z"/>
				
					<linearGradient id="SVGID_69_" gradientUnits="userSpaceOnUse" x1="-1979.7473" y1="-4927.9683" x2="-2131.3328" y2="-5090.5376" gradientTransform="matrix(0.9653 0.2612 0.2612 -0.9653 -3604.6379 3907.9902)">
					<stop  offset="0" style="stop-color:#A22B25"/>
					<stop  offset="1" style="stop-color:#C0423C"/>
				</linearGradient>
				<path class="st79" d="M2803.7,2119c0,0-57.1,83.2-21.6,106.4s76.2-36,76.2-36s12.8-45.2-1.8-60.2
					C2842,2114.3,2803.7,2119,2803.7,2119z"/>
				
					<linearGradient id="SVGID_70_" gradientUnits="userSpaceOnUse" x1="14631.0439" y1="938.4944" x2="14891.7168" y2="1572.0059" gradientTransform="matrix(0.9998 -1.890000e-02 -1.890000e-02 -0.9998 -11929.6699 3755.9146)">
					<stop  offset="0" style="stop-color:#09005D"/>
					<stop  offset="1" style="stop-color:#1A0F91"/>
				</linearGradient>
				<path class="st80" d="M2830.5,2098.9c0,0-26.8,6.9-30.4,19.2c-3.5,12.3,38.7,22.8,50.5,23.1l10.4,49c0,0,27.2-46.8,15.6-73.4
					C2864.9,2090.3,2830.5,2098.9,2830.5,2098.9z"/>
				
					<linearGradient id="SVGID_71_" gradientUnits="userSpaceOnUse" x1="-1952.2805" y1="-4953.5801" x2="-2103.8655" y2="-5116.1494" gradientTransform="matrix(0.9653 0.2612 0.2612 -0.9653 -3604.6379 3907.9902)">
					<stop  offset="0" style="stop-color:#A22B25"/>
					<stop  offset="1" style="stop-color:#C0423C"/>
				</linearGradient>
				<path class="st81" d="M2846.8,2183.6c0,0,22.3-26.9,31.8-9.8s-20,30.6-30.4,22.3L2846.8,2183.6z"/>
				
					<linearGradient id="SVGID_72_" gradientUnits="userSpaceOnUse" x1="2997.7029" y1="745.2872" x2="3415.1116" y2="789.2249" gradientTransform="matrix(1 0 0 -1 0 3710)">
					<stop  offset="0" style="stop-color:#A22B25"/>
					<stop  offset="1" style="stop-color:#C0423C"/>
				</linearGradient>
				<path class="st82" d="M2744.5,2774.5c0.3,4.5-6.9,39.9-10.8,58.9c-1.6,7.6-0.2,15.5,3.8,22.2l152.1,245.4c1.8,3,3.2,6.2,4.1,9.6
					c2.9,11.6,9.1,40,6.6,66l-7.3,16l32.8-8.1l5.5-88.7l-9.4-5.5c-8.2-4.8-14.6-12-18.3-20.7c-13.9-32.1-48.6-113.9-57.9-154
					c-10.6-45.5-62-81.6-62-81.6l8.5-21.2L2744.5,2774.5z"/>
				
					<linearGradient id="SVGID_73_" gradientUnits="userSpaceOnUse" x1="-4063.3281" y1="439.2614" x2="-3984.1377" y2="439.2614" gradientTransform="matrix(-1 9.400000e-03 -9.400000e-03 -1 -1097.4792 3622.2329)">
					<stop  offset="0" style="stop-color:#09005D"/>
					<stop  offset="1" style="stop-color:#1A0F91"/>
				</linearGradient>
				<path class="st83" d="M2961.8,3153.3c0,0-18.3-27.9-20.7-38.9c-2.3-11-8.5-30.3-19.4-24.2c0,0-4.2,53.5-2,74.3
					s-23.2,20.6-23.2,20.6s-7,1.1-12,6.3c-3.5,3.6-0.8,9.7,4.2,9.9c8.3,0.4,21.5,0.3,35.3-2.7c4.8-1,8.3-5.2,8.5-10.1l2.5-61.5
					l23,27.9L2961.8,3153.3z"/>
				
					<linearGradient id="SVGID_74_" gradientUnits="userSpaceOnUse" x1="3254.9807" y1="1176.8494" x2="3092.4111" y2="996.7048" gradientTransform="matrix(1 0 0 -1 0 3710)">
					<stop  offset="0" style="stop-color:#A22B25"/>
					<stop  offset="1" style="stop-color:#C0423C"/>
				</linearGradient>
				<path class="st84" d="M2833.3,2812.3c0,0,9.4,221.9,10.7,253.4s-3.1,101.5-34.3,123l13.9,9.9c0,0,16.9-14.9,33.2-43.4
					c18.3-31.9,23.9-37.8,23.9-37.8l-6.5-12.7c-2.8-5.6-3.8-11.9-2.6-18c6.2-33.2,26.9-143.6,32.7-167.4
					c6.8-28.1,6.6-65.4-19.5-96.2C2858.6,2792.4,2833.3,2812.3,2833.3,2812.3z"/>
				
					<linearGradient id="SVGID_75_" gradientUnits="userSpaceOnUse" x1="-3989.8901" y1="424.8357" x2="-3895.5188" y2="424.8357" gradientTransform="matrix(-1 9.400000e-03 -9.400000e-03 -1 -1097.4792 3622.2329)">
					<stop  offset="0" style="stop-color:#09005D"/>
					<stop  offset="1" style="stop-color:#1A0F91"/>
				</linearGradient>
				<path class="st85" d="M2869.9,3207.8c1,0,1.8-0.7,1.9-1.7c0.9-7.4,4.7-37.2,8.2-44.9c3.9-8.9,16.6-46.2-0.9-49
					c0,0-42.3,64.4-50.5,73.2c-8.2,8.7-18.9,3.4-18.9,3.4s-8.1,2.6-14.1,10.5c-2.9,3.8,0,9.2,4.7,9.2l29.3-0.3
					c8.5-0.1,16.1-5.4,19.1-13.4c4.9-13,13.4-32.1,23.6-40.7l-4.4,51.5C2867.9,3206.8,2868.8,3207.8,2869.9,3207.8L2869.9,3207.8z"
					/>
				
					<linearGradient id="SVGID_76_" gradientUnits="userSpaceOnUse" x1="3508.3572" y1="1593.5876" x2="3220.5269" y2="1341.7363" gradientTransform="matrix(1 0 0 -1 0 3710)">
					<stop  offset="0" style="stop-color:#4F52FF"/>
					<stop  offset="1" style="stop-color:#4042E2"/>
				</linearGradient>
				<path class="st86" d="M2791.8,2543.5c0,0,7,20.9-2.5,55.8l-58.8,221.2c-0.9,3.5,1,7.1,4.4,8.2c19,6.4,81.3,24.4,165.7,16.9
					c4.3-0.4,7.8-3.5,8.6-7.6c5.1-25.2,22.5-111.1,26.1-128.8c13.6-67.3,28.9-139.8-45.1-182.1
					C2856.6,2542.2,2825.3,2551.3,2791.8,2543.5z"/>
				
					<linearGradient id="SVGID_77_" gradientUnits="userSpaceOnUse" x1="-3767.4187" y1="2387.4893" x2="-3318.0154" y2="2901.5408" gradientTransform="matrix(-0.9944 -0.1059 0.1059 -0.9944 -1100.6289 4427.3384)">
					<stop  offset="0" style="stop-color:#A22B25"/>
					<stop  offset="1" style="stop-color:#C0423C"/>
				</linearGradient>
				<path class="st87" d="M2904.2,2320.4c0,0,72.8,58.2,92.1,139.3s-103,92-103,92s-17-18.3-36.6-11.3s-2.1-32.4,21-32.7
					s12.7,18.1,45.2,2.7c31.6-15,50.4-60-32.1-126.1c-4.8-3.8-8.6-8.8-11-14.4C2863.2,2330.5,2875.2,2304.2,2904.2,2320.4z"/>
				<path class="st1" d="M3052.8,2422.7l-1.7-1.2c15.9-22.5,17.9-55,5.3-84.8c-10-23.7-27.9-45.3-56.3-68.1
					c-10.6-8.5-21.8-16.6-32.7-24.4c-13.1-9.4-26.6-19.1-39.1-29.6c-11.3-9.5-23.1-21.3-25.6-36.7c-1.2-7.7-0.1-15.9,1-23.8
					c1.8-12.4,3.4-24.1-3.8-33l1.6-1.3c7.8,9.7,6,22.4,4.3,34.7c-1.1,7.8-2.2,15.8-1,23.1c2.4,14.7,13.9,26.2,24.9,35.4
					c12.5,10.5,25.9,20.2,39,29.5c10.9,7.8,22.1,15.9,32.8,24.4c28.7,23,46.8,44.9,56.9,68.9
					C3071.2,2366.3,3069,2399.6,3052.8,2422.7z"/>
				<path class="st1" d="M3010.6,2436.3l-2-0.7c10.8-29.9,7.6-66.5-8.7-100.6c-16.2-33.8-42.6-61.4-63.8-81.6l1.5-1.5
					c21.3,20.4,47.9,48.1,64.2,82.2C3018.4,2368.7,3021.6,2405.9,3010.6,2436.3z"/>
			</g>
			<g>
				<circle class="st19" cx="2619.2" cy="1966.2" r="129.3"/>
				
					<linearGradient id="SVGID_78_" gradientUnits="userSpaceOnUse" x1="411.9178" y1="1466.1185" x2="708.1832" y2="1854.8888" gradientTransform="matrix(-1 0 0 -1 3242.7271 3710)">
					<stop  offset="0" style="stop-color:#FF928E"/>
					<stop  offset="1" style="stop-color:#FE7062"/>
				</linearGradient>
				<path class="st88" d="M2510.4,1966.2c0-60,48.8-108.8,108.8-108.8s108.8,48.8,108.8,108.8s-48.8,108.8-108.8,108.8
					S2510.4,2026.2,2510.4,1966.2z M2514.1,1966.2c0,57.9,47.1,105.1,105.1,105.1c57.9,0,105.1-47.1,105.1-105.1
					s-47.1-105.1-105.1-105.1C2561.3,1861.1,2514.1,1908.2,2514.1,1966.2z"/>
				
					<linearGradient id="SVGID_79_" gradientUnits="userSpaceOnUse" x1="2645.1802" y1="1661.5348" x2="2860.019" y2="2044.2168" gradientTransform="matrix(1 0 0 -1 0 3710)">
					<stop  offset="0" style="stop-color:#FF928E"/>
					<stop  offset="1" style="stop-color:#FE7062"/>
				</linearGradient>
				<path class="st89" d="M2578.9,2109.9h83.8v-36.4c0-0.9-0.7-1.6-1.6-1.6h-79.5c-1.5,0-2.7,1.2-2.7,2.7V2109.9z"/>
				
					<linearGradient id="SVGID_80_" gradientUnits="userSpaceOnUse" x1="559.249" y1="1185.0981" x2="677.4657" y2="1798.8857" gradientTransform="matrix(-1 0 0 -1 3242.7271 3710)">
					<stop  offset="0" style="stop-color:#FF928E"/>
					<stop  offset="1" style="stop-color:#FE7062"/>
				</linearGradient>
				<path class="st90" d="M2611.3,2305.3h19.7c0.8,0,1.4-0.6,1.4-1.4v-205.2c0-0.8-0.6-1.4-1.4-1.4h-19.7c-0.8,0-1.4,0.6-1.4,1.4
					v205.2C2609.9,2304.7,2610.6,2305.3,2611.3,2305.3z"/>
				
					<linearGradient id="SVGID_81_" gradientUnits="userSpaceOnUse" x1="2861.3096" y1="1839.1057" x2="2796.1343" y2="1776.1779" gradientTransform="matrix(1 0 0 -1 0 3710)">
					<stop  offset="0" style="stop-color:#FF928E"/>
					<stop  offset="1" style="stop-color:#FE7062"/>
				</linearGradient>
				<path class="st91" d="M2575.3,2111.4h90.4c0.5,0,0.9-0.4,0.9-0.9v-14.2c0-0.5-0.4-0.9-0.9-0.9h-90.4c-0.5,0-0.9,0.4-0.9,0.9
					v14.2C2574.4,2111,2574.8,2111.4,2575.3,2111.4z"/>
				<g>
					
						<linearGradient id="SVGID_82_" gradientUnits="userSpaceOnUse" x1="2540.3997" y1="1746.55" x2="2591.9998" y2="1746.55" gradientTransform="matrix(1 0 0 -1 0 3710)">
						<stop  offset="0" style="stop-color:#E1473D"/>
						<stop  offset="1" style="stop-color:#E9605A"/>
					</linearGradient>
					<path class="st92" d="M2540.4,1918.5h23c9.4,0,16.2,1.8,20.4,5.4c4.3,3.6,6.4,9.4,6.4,17.3c0,5.2-1.1,9.6-3.4,13.1
						c-2.3,3.5-5.3,5.6-9.2,6.4v0.6c5.1,1.3,8.8,3.7,11,7.1c2.3,3.5,3.4,8.1,3.4,13.9c0,8.2-2.2,14.6-6.6,19.2
						c-4.4,4.6-10.4,6.9-17.9,6.9h-27.1L2540.4,1918.5L2540.4,1918.5z M2556.1,1954.7h7.7c3.5,0,6-0.9,7.4-2.8s2.2-4.7,2.2-8.4
						c0-3.7-0.8-6.4-2.5-8s-4.2-2.4-7.8-2.4h-7.1v21.6H2556.1z M2556.1,1968.7v25.2h8.4c3.5,0,6.1-1.1,7.8-3.2s2.6-5.4,2.6-9.9
						c0-8-3.5-12.1-10.6-12.1H2556.1z"/>
					
						<linearGradient id="SVGID_83_" gradientUnits="userSpaceOnUse" x1="2607.3" y1="1746.5" x2="2623.0571" y2="1746.5" gradientTransform="matrix(1 0 0 -1 0 3710)">
						<stop  offset="0" style="stop-color:#E1473D"/>
						<stop  offset="1" style="stop-color:#E9605A"/>
					</linearGradient>
					<path class="st93" d="M2607.3,2008.5v-90h15.8v90H2607.3z"/>
					
						<linearGradient id="SVGID_84_" gradientUnits="userSpaceOnUse" x1="2642.0999" y1="1746.4" x2="2699.3" y2="1746.4" gradientTransform="matrix(1 0 0 -1 0 3710)">
						<stop  offset="0" style="stop-color:#E1473D"/>
						<stop  offset="1" style="stop-color:#E9605A"/>
					</linearGradient>
					<path class="st94" d="M2699.3,1962.7c0,14.9-3,26.2-9.1,34.1s-14.8,11.8-26.1,11.8h-22v-90h24.1c10.5,0,18.6,3.9,24.4,11.6
						C2696.4,1937.9,2699.3,1948.7,2699.3,1962.7z M2682.1,1963.2c0-20.1-5.5-30.2-16.6-30.2h-6.7v60.9h5.4c6.1,0,10.6-2.6,13.5-7.7
						C2680.7,1981.1,2682.1,1973.4,2682.1,1963.2z"/>
				</g>
			</g>
			
				<linearGradient id="SVGID_85_" gradientUnits="userSpaceOnUse" x1="14507.8496" y1="1471.3582" x2="14532.8535" y2="1471.3582" gradientTransform="matrix(1 0 0 -1 -11913.6309 3710)">
				<stop  offset="0" style="stop-color:#A22B25"/>
				<stop  offset="1" style="stop-color:#C0423C"/>
			</linearGradient>
			<path class="st95" d="M2594.8,2233.9c-0.9,7.4-0.5,15.3-0.2,17.9c0.3,2.2,0.9,4.6,2.9,5.6c4.5,2.3,14.2-4.1,18-6.3
				c1.4-0.8,2.9-1.8,3.5-3.3c0.6-1.6,0-3.3-0.5-4.9c-1.9-5.7-3.9-11.5-7.3-16.5c-2.1-3.1-7.4-9.2-11.5-6.2
				C2596.1,2222.8,2595.3,2229.9,2594.8,2233.9z"/>
		</g>
	</g>
</g>
</svg>
